<svg enable-background="new 0 0 333 304" height="304" viewBox="0 0 333 304" width="333"
    xmlns="http://www.w3.org/2000/svg">
    <path
        id="quads_0"
        d="m66.1 208.4c.4-8.8.7-17.5 1.2-26.1.2-4.1 1.8-8.1 0-12.2-3.4-7.8-6.8-15.5-10.3-23.6-1.4 8.5-2.6 16.6-.5 24.9 2.2 9.1 3.9 18.3 5.8 27.5.6 3.2 1.1 6.4 1.6 9.5z"
        fill="#b9b9b9" />
    <path
        id="chest_0"
        d="m105.8 70.2c-2.4-1.6-4.4-2.9-6.3-4.3-2-1.4-3.8-3-5.8-4.3-3-1.9-6.1-3.8-9.3-5.3-1.2-.6-3.2-.8-4.1-.1s-1.2 2.6-1.2 4c0 3.9.3 7.7.5 11.6 0 .3-.2.7-.3 1-.9 3.5-.1 5.1 3.5 5.7 9.2 1.5 16-3.3 23-8.3z"
        fill="#b9b9b9" />
    <path
        id="quads_1"
        d="m90.6 208.4c2-10.4 3.7-20.7 6.1-30.7 1.6-6.9 3.3-13.7 2.5-20.9-.4-3.4-.9-6.7-1.3-10.1-.9 1.2-1.2 2.3-1.7 3.4-2.6 6.1-5.3 12.1-8 18.1-1.4 3.2-1.8 6.3-1.4 9.9.8 8.1 1.2 16.2 1.6 24.4.1 2-.3 4-.4 6.1 1.1-.2 2-.2 2.6-.2z"
        fill="#b9b9b9" />
    <path
        id="chest_1"
        d="m48.9 70.1c5 4.3 10.5 7.1 16.6 8.3 2 .4 4.3.3 6.3 0 3.5-.6 4.3-2.2 3.6-5.5-.1-.6-.3-1.2-.3-1.8.1-4.3.4-8.5.4-12.7 0-2.3-1.9-3.5-4.1-2.7-2 .8-4 1.6-5.8 2.8-5.5 3.7-10.9 7.6-16.7 11.6z"
        fill="#b9b9b9" />
    <path
        id="abs_0"
        d="m75.4 130.8c.1 0 .1 0 0 0 .1-2.8.1-5.5.1-8.3 0-5.6-2.6-8.2-8.2-8.5-1.7-.1-2.7.4-2.5 2.4.3 2.5 0 5.1.6 7.5 1.4 5.9 3.1 11.7 4.9 17.4.3 1 2.2 1.5 3.3 2.2.6-1.1 1.6-2.2 1.7-3.3.3-3.1.1-6.2.1-9.4z"
        fill="#b9b9b9" />
    <path
        id="biceps_0"
        d="m46.1 71.2c-1.7.7-3.4 1.3-5 2-.6.3-1.4.8-1.5 1.3-1.5 5.9-3.1 11.9-4.2 17.9-.3 1.5.8 4 2 4.7 2 1.3 3.8-.6 5.2-2.2.3-.3.5-.7.8-1.1 3.4-4.7 4.6-10.2 5.6-15.7.5-3 .7-5.6-2.9-6.9z"
        fill="#b9b9b9" />
    <path
        id="biceps_1"
        d="m108 70.7c-1 1.5-2.8 2.9-2.7 4.1.6 5.8 1.6 11.7 4.7 16.9 1.1 1.8 2.4 3.6 4 5 2.1 1.8 4.6.8 5.1-2 .2-1.1.4-2.3.2-3.4-.8-3.9-1.7-7.8-2.5-11.7-.8-3.8-2.3-6.9-6.6-7.6-.7-.2-1.2-.7-2.2-1.3z"
        fill="#b9b9b9" />
    <path
        id="abs_1"
        d="m78.6 130.6c.2 0 .5 0 .7.1 0 3.1-.1 6.3.1 9.4.1 1.2 1 2.3 1.5 3.5 1.2-.7 2.4-1.3 3.5-2 .4-.3.6-.9.8-1.4 3.1-7.6 4.5-15.6 4.8-23.8 0-.6-.2-1.5-.6-1.9-1.7-1.4-8.5.6-8.9 2.7-.8 4.4-1.3 8.9-1.9 13.4z"
        fill="#b9b9b9" />
    <path
        d="m82.6 285c.3.2.6.4.9.6.4-.8 1-1.6 1.2-2.5 2.8-11.6 5.5-23.3 8.1-34.8 1.4-6.5 2.6-13.1 3.6-19.7.2-1.4-.7-3.9-1.6-4.2-2.2-.6-2.7 1.8-3.4 3.3-.5 1-.9 2-1 3-.8 5.3-1.9 10.6-2.4 15.9-.8 8-.8 16.1-1.8 24.1-.6 4.7-2.4 9.4-3.6 14.3z"
        fill="#b9b9b9" />
    <path
        d="m71.5 285.5c.3-.2.5-.5.8-.7-3-9.2-5.2-18.5-5.4-28.3-.1-6.2-.4-12.5-1.1-18.7-.5-3.9-1.8-7.8-3.1-11.6-.3-1-1.9-1.5-2.9-2.3-.5 1-1.3 2.1-1.4 3.1-.1 2.1-.1 4.3.3 6.4 1.6 7.5 3.4 15 5.1 22.4 2.1 9.2 4.2 18.4 6.4 27.6.2.9.8 1.5 1.3 2.1z"
        fill="#b9b9b9" />
    <path
        id="abs_2"
        d="m63.4 131.2c-.6-7.4-1-14.1-1.9-20.6-.3-1.8-2.2-3.6-3.8-4.8-1.9-1.5-3-.8-3.2 1.7-.2 4 0 8.1-.8 12-1.2 6.2 3 9.9 7.8 12.2.6.3 1.6-.4 1.9-.5z"
        fill="#b9b9b9" />
    <path
        id="abs_3"
        d="m100.3 119.8c0-4.1.1-8.2 0-12.3 0-2.2-1-2.8-2.9-1.9-2.4 1.2-4.2 2.9-4.5 5.7-.7 6.2-1.2 12.5-1.7 18.7-.2 2.2.8 2.7 2.5 1.7 5.5-3.3 8.2-5.9 6.6-11.9z"
        fill="#b9b9b9" />
    <path
        id="quads_2"
        d="m57.1 198.9c-.8-5.4-1.7-10.7-2.3-16.1-1.1-9.8-1.5-19.7-.5-29.5.6-6.5 1.2-13 1.7-19.5.1-1.1-.5-2.2-.7-3.2-.3.1-.6.1-1 .2-5.5 22.9-4.1 45.6 2.8 68.1z"
        fill="#b9b9b9" />
    <path
        id="quads_3"
        d="m97.5 199.8c7.1-22.8 8.4-45.8 2.4-69.2-.7.6-1.1 1.3-1.2 2 0 1.7.1 3.4.2 5.1.6 7.7 1.5 15.3 1.8 23 .6 13.1-.8 26.2-3.2 39.1z"
        fill="#b9b9b9" />
    <path
        id="quads_4"
        d="m69.9 177.7c-.3 3.5-.8 7-1 10.5-.3 6.2-.4 12.5-.4 18.7 0 1.8.1 4.2 2.6 4.3 2.6.1 2.9-2.5 3.2-4.3 1.9-10.2-.4-19.8-4.4-29.2z"
        fill="#b9b9b9" />
    <path
        id="quads_5"
        d="m85.3 177.4c-.3 0-.6 0-1 0-3.4 9.1-5.5 18.4-4.1 28.2.2 1.6.7 3.2 1.5 4.5 1.1 1.8 3 1.6 3.9-.4.3-.7.6-1.5.6-2.3-.2-10-.6-20-.9-30z"
        fill="#b9b9b9" />
    <path
        id="forearms_0"
        d="m32.1 97.7c-3.5 3.3-5.8 7.8-7.6 15.6-2 8.5-3.7 17.1-9.2 24.3.7-.2 1.3-.5 1.6-1 3.9-6.2 7.7-12.5 11.7-18.6 4.2-6.2 5.5-12.9 3.5-20.3z"
        fill="#b9b9b9" />
    <path
        id="forearms_1"
        d="m138.9 137.8c.2-.1.4-.3.6-.4-4.8-6.2-6.9-13.4-8.7-20.8-1.1-4.7-2.8-9.2-4.5-13.7-.7-1.9-2.3-3.4-3.6-5.4-2.2 8.1-.6 14.8 3.7 21.2 3.9 5.9 7.5 12 11.3 17.9.3.5.8.8 1.2 1.2z"
        fill="#b9b9b9" />
    <path 
        id="deltoids_0"
        d="m39.3 71.4c7.5-.2 13.7-7.6 17.2-18.7-2-.7-3.7-.5-5.4.9-5.8 4.6-9.4 10.8-11.8 17.8z" fill="#b9b9b9" />
    <path 
        id="deltoids_1"
        d="m98.7 51.8c2.8 11.4 9.3 19.7 16.8 19.6-2.4-6.9-5.8-13.1-11.6-17.6-1.4-1.1-3.5-1.4-5.2-2z" fill="#b9b9b9" />
    <path 
        id="quads_6"
        d="m74.5 182.7c-3-17-10.6-32.3-17.1-48.5-.6 5.1.3 9.6 2.1 13.8 4.9 11.5 10 23 15 34.7z" fill="#b9b9b9" />
    <path
        id="quads_7"
        d="m80.7 182.2c1.2-3.2 2.3-6.3 3.6-9.4 3.5-8.2 7.3-16.3 10.7-24.5 2.3-5.4 2.8-10.3 2.1-13.8-6.2 15.8-13.7 30.8-16.4 47.7z"
        fill="#b9b9b9" />
    <path
        id="abs_4"
        d="m75.5 108.4c0-5.9-1-6.8-6.7-6.3-3.8.4-6.5 5.1-4.7 8.5.3.6 1.4 1 2.1 1.1 1.4.3 2.9.2 4.2.5 5.1 1.4 5.1 1.4 5.1-3.8z"
        fill="#b9b9b9" />
    <path
        id="abs_5"
        d="m79.3 113.2c3.7-.6 7.1-1 10.5-1.6.4-.1.8-.9.9-1.4.8-2.7-.1-5.6-2-7-1.8-1.3-6.8-1.6-8.5-.3-.4.3-.9 1-.9 1.5-.1 2.9 0 5.9 0 8.8z"
        fill="#b9b9b9" />
    <path
        id="abs_6"
        d="m75.5 99.6c0-1.7 0-3.4 0-5.1 0-4.4-1.7-5.7-5.9-4.1-1.3.6-2.6 1.4-3.6 2.3-2.6 2.3-3 6-1.6 7.8 3.8-.3 7.2-.6 11.1-.9z"
        fill="#b9b9b9" />
    <path
        id="abs_7"
        d="m90.5 100.5c1-2.4.6-4.9-1.2-7.1-2.1-2.5-4.7-3.8-8-3.4-.7.1-1.9.9-1.9 1.4-.2 2.8-.1 5.6-.1 8.2 3.9.3 7.3.6 11.2.9z"
        fill="#b9b9b9" />
    <path
        id="calves_0"
        d="m57.2 238.4c-.3 0-.5 0-.8 0 .2 3.2 0 6.5.7 9.6 2.7 11.4 5.7 22.6 8.5 33.9.4 1.4.7 2.8 1.1 4.6 1.2-2.3-7.8-45.7-9.5-48.1z"
        fill="#b9b9b9" />
    <path
        id="calves_1"
        d="m97.9 238.4c-.2 0-.4 0-.6-.1-.3.5-.6 1-.7 1.6-3.2 15-6.4 30-9.6 45-.1.3.5.8 1 1.6 1.1-4.6 1.9-8.6 2.9-12.6 2.3-9.1 4.8-18.1 6.9-27.3.6-2.6.1-5.5.1-8.2z"
        fill="#b9b9b9" />
    <path 
        id="chest_2"
        d="m104.1 67.4c-1.9-3.3-3.7-6.2-5.3-9.2s-4.2-4.8-7.4-5.8c-3-.9-6.5-.2-8.4 1.6 8.6 2 14.2 8.4 21.1 13.4z"
        fill="#b9b9b9" />
    <path 
        id="chest_3"
        d="m50.6 67.3c6.9-5.1 12.7-11.3 21.3-13.5-4.3-3.3-13.1-1.9-16.3 4.6-1.4 2.9-3.1 5.7-5 8.9z" fill="#b9b9b9" />
    <path 
        id="deltoids_2"
        d="m36.7 71.8c3.5-6.9 6.4-14.1 13.1-18.9-4.7-1.5-9.2.5-11.1 5-1.9 4.3-2.3 9-2 13.9z" fill="#b9b9b9" />
    <path
        id="abs_8"
        d="m64.1 90.6c3.5-1.1 6.8-2 10.1-3.1.6-.2 1.2-1.1 1.3-1.7.2-1.2.2-2.5 0-3.7-.1-.6-.9-1.4-1.4-1.5-3.3-.5-6.2.9-8.5 3.1-2 1.9-2.4 4.4-1.5 6.9z"
        fill="#b9b9b9" />
    <path 
        id="deltoids_3"
        d="m117.8 71.7c.3-5.7.2-11.5-3.5-16.4-2.1-2.8-6.2-3.7-9.4-2.4 6.6 4.8 9.6 11.8 12.9 18.8z" fill="#b9b9b9" />
    <path 
        id="abs_9" 
        d="m90.5 90.6c1.3-4.6-1-8.4-6.2-9.9-4.1-1.1-5.1-.4-5 3.8 0 1 .5 2.6 1.2 2.8 3.2 1.4 6.5 2.2 10 3.3z"
        fill="#b9b9b9" />
    <path 
        id="quads_8"
        d="m99 175c-3.4 10.8-5.1 22-6.6 33.1-.1.6.6 1.3 1.2 2.6 3.9-12 4.6-23.8 5.4-35.7z" 
        fill="#b9b9b9" />
    <path 
        id="quads_9" 
        d="m61.5 209.9c0-11.8-2.5-23.2-5.7-34.4.6 11.6 1.5 23.2 5.7 34.4z" 
        fill="#b9b9b9" />
    <path 
        id="abductors_0"
        d="m81.7 170c.9-3.1 2-6.1 2.7-9.2.3-1 .1-2.4-.3-3.3-1.5-3.1-3.2-6-4.8-8.9-1.4 4.6 0 17.2 2.4 21.4z"
        fill="#b9b9b9" />
    <path 
        id="abductors_1"
        d="m73.1 170.6c2.7-7.8 3.2-15.1 2.4-22.4-1.5 2.8-3.1 5.6-4.5 8.5-.5 1-1.2 2.2-1 3.2.8 3.4 1.9 6.7 3.1 10.7z"
        fill="#b9b9b9" />
    <path 
        id="abductors_2"
        d="m67.7 142.6c-3.6 5.2-2.2 9.7 1.6 13.9 5.8-8.8 5.6-9.8-1.6-13.9z" 
        fill="#b9b9b9" />
    <path 
        id="abductors_3"
        d="m86.7 142.2c-1.7 1.5-3.4 3.1-5 4.7-.3.3-.5 1.2-.4 1.6 1.2 2.8 2.4 5.5 3.8 8.5 4-4.8 5.6-9.3 1.6-14.8z"
        fill="#b9b9b9" />
    <path 
        d="m79.7 209.6c0 3.1-.5 5.9.1 8.4 1.6 6 3.7 11.8 5.7 17.7 1.4-4.8.4-9.1-1.6-13.5-1.9-4-2.8-8.1-4.2-12.6z"
        fill="#b9b9b9" />
    <path 
        d="m74.9 210.8c-1.6 4.4-2.9 9-4.9 13.4-1.8 4-1.7 7.8-.8 11.4.8-2.5 1.2-5.4 2.6-7.8 3.3-5.6 3.6-11.4 3.1-17z"
        fill="#b9b9b9" />
    <path 
        id="calves_2"
        d="m82.3 230.6c-1.5 6.9-2.9 13.7-.8 20.7 3.3-6.8 2.2-13.7.8-20.7z" 
        fill="#b9b9b9" />
    <path
        d="m103.4 88.7c-2.5 3.3-5 6.2-7.1 9.5-1.1 1.7-1.4 3.9-.2 6 4.4-2.5 7.2-8.6 7.3-15.5z" 
        fill="#b9b9b9" />
    <path 
        id="calves_3"
        d="m73.2 251.3c2.2-7 .5-13.7-.9-20.5-1 6.9-2.6 13.8.9 20.5z" 
        fill="#b9b9b9" />
    <path 
        d="m51.3 88.5c.4 6.4 1.7 11.9 7.2 15.9 1.4-2.6.9-4.8-.5-6.8-2-3-4.3-5.8-6.7-9.1z" 
        fill="#b9b9b9" />
    <path 
        id="forearms_2"
        d="m36.6 113.8c-9.6 5.4-11.4 16.1-17.1 24.2 5.7-8 11.4-16.1 17.1-24.2z" 
        fill="#b9b9b9" />
    <path 
        id="forearms_3"
        d="m135.2 138c-5.7-7.8-7.3-18.5-16.7-23.7 5.5 7.9 11.1 15.8 16.7 23.7z" 
        fill="#b9b9b9" />
    <path 
        id="calves_4"
        d="m84.9 250.7c-.4-.1-.8-.1-1.2-.2-3.9 8.5.8 17.5-1.3 26.1.3 0 .7 0 1 .1.5-8.7 1-17.3 1.5-26z"
        fill="#b9b9b9" />
    <path 
        id="forearms_4"
        d="m43.6 103.6c-4.9 1.9-9.9 6.7-10.6 10.1 2.5-1.3 5.1-2.7 7.7-4.1 2.8-1.4 3.4-2.7 2.9-6z" 
        fill="#b9b9b9" />
    <path 
        id="calves_5"
        d="m71 274.8h.6c.2-4.1.5-8.2.7-12.3.4-8.1.2-9.6-2.3-11.8.3 8.1.6 16.1 1 24.1z" 
        fill="#b9b9b9" />
    <path
        d="m97.6 206.7c-.2 0-.3-.1-.5-.1-1.7 5.3-3.4 10.6-5.3 16.3 1.7-1.2 2.9-2 4.1-3 .7-.6 1.5-1.4 1.6-2.1.2-3.8.1-7.4.1-11.1z"
        fill="#b9b9b9" />
    <path 
        id="forearms_5"
        d="m122.3 113.9c-2.7-5.1-6.5-8.1-11.3-10.7-.3 2.5-.1 4.5 1.8 5.7 3 1.7 6.1 3.2 9.5 5z" 
        fill="#b9b9b9" />
    <path 
        d="m62.7 222.6c-1.6-4.9-3-9.4-4.4-13.9-.2-.6-.5-1.1-1-2.3v12.7c1.9 1.2 3.4 2.2 5.4 3.5z" 
        fill="#b9b9b9" />
    <path 
        id="forearms_6"
        d="m41.4 111.7c-.2-.1-.4-.2-.6-.3-4 7.4-7.9 14.9-11.9 22.3 5-6.9 10.4-13.6 12.5-22z" 
        fill="#b9b9b9" />
    <path 
        id="traps_0"
        d="m87.2 41.8c.8 4.4 5.9 8.6 11.9 6.4-4-2.1-7.9-4.2-11.9-6.4z" 
        fill="#b9b9b9" />
    <path 
        id="traps_1"
        d="m55.5 48.3c6.4 2.1 11.6-2.7 11.8-6.4-3.9 2.2-7.7 4.3-11.8 6.4z" 
        fill="#b9b9b9" />
    <path 
        id="forearms_7" 
        d="m131.8 140.3c.2-.1.4-.2.6-.4-3.6-7.6-7.4-15.1-13.4-21.3 4.3 7.3 8.6 14.5 12.8 21.7z" 
        fill="#b9b9b9" />
    <path
        id="forearms_8"
        d="m22 139.8c.3.2.6.3.9.5 4.2-7.2 8.5-14.3 12.7-21.5-.4-.2-.7-.4-1.1-.6-4.2 7.2-8.4 14.4-12.5 21.6z"
        fill="#b9b9b9" />
    <path 
        d="m53.9 87.2c-.1 3 2.6 6.8 5.7 7.9 1-4.3-.7-6.7-5.7-7.9z" 
        fill="#b9b9b9" />
    <path 
        d="m95.6 96c2.3-3.1 4.2-5.7 6.4-8.7-5.6.2-8.5 4.3-6.4 8.7z" 
        fill="#b9b9b9" />
    <path 
        id="triceps_0"
        d="m37.8 75c-4.9 3.9-6.3 22.3-1.8 26.8-3.7-9.5-1.9-18.2 1.8-26.8z" 
        fill="#b9b9b9" />
    <path 
        id="triceps_1"
        d="m117 75c3.6 8.6 5.4 17.3 1.7 26.9 4.4-4.9 3-22.9-1.7-26.9z" 
        fill="#b9b9b9" />
    <path 
        d="m54.9 79.3c.8 3.8 2 6.7 4.8 9.1 1.6-4 1.1-5-4.8-9.1z" 
        fill="#b9b9b9" />
    <path 
        id="hips_0"
        d="m104.4 145.4c0-5.5-.3-11-1.9-16.2-.3 0-.6.1-.9.1.9 5.4 1.8 10.7 2.8 16.1z" 
        fill="#b9b9b9" />
    <path d="m90.9 139.3c-3 1.9-3.1 4.1-.2 6.4 1.3-2.2 2.3-4.2.2-6.4z" fill="#b9b9b9" />
    <path d="m63.6 139.3c-1.6 2.3-1 4.4.6 6.5 2.6-3 2.4-5-.6-6.5z" fill="#b9b9b9" />
    <path 
        id="hips_1"
        d="m49.9 144.2c.2 0 .4 0 .6.1.9-5 1.7-9.9 2.6-14.9-.4-.1-.8-.1-1.2-.2-.7 5-1.3 10-2 15z" 
        fill="#b9b9b9" />
    <path 
        d="m55.7 85.4c-1.3-2.1-2.2-3.7-3.5-5.7-1.4 4.1-.6 5.5 3.5 5.7z" 
        fill="#b9b9b9" />
    <path 
        d="m99.1 85.4c4-.1 4.9-1.8 3.2-5.6-1.1 1.9-2.1 3.6-3.2 5.6z" 
        fill="#b9b9b9" />
    <path d="m66.4 225.5c.8-2.6 1.3-4.4 1.9-6.2-1.3.4-2.4.7-3.5 1 .5 1.6.9 3 1.6 5.2z" fill="#b9b9b9" />
    <path d="m87.3 48.9c-.7-1.8-1.2-3.1-1.7-4.6-.8 1.8-1.4 3.3-2.3 5.2 1.6-.2 2.7-.4 4-.6z" fill="#b9b9b9" />
    <path d="m88.3 225.5c.6-1.9 1.1-3.6 1.6-5.3-1.2-.3-2.3-.6-3.5-1 .6 2.2 1.2 4.1 1.9 6.3z" fill="#b9b9b9" />
    <path 
        d="m71.7 49.7c-1.1-2.1-1.8-3.5-2.7-5.3-.6 1.8-1 3-1.5 4.5 1.1.2 2.2.4 4.2.8z" 
        fill="#b9b9b9" />
    <path 
        d="m92.4 80.8c.3.4.7.8 1 1.2 1.2-1.2 2.5-2.3 3.7-3.5-.2-.2-.3-.4-.5-.6-1.4 1-2.8 2-4.2 2.9z" 
        fill="#b9b9b9" />
    <path
        id="lats_0"
        d="m247.9 133.4c.2-1.2.5-1.8.4-2.3-.4-12.3-.7-24.7-1.3-36.9-.2-3.4-.2-7-2.7-9.9-4.3-4.9-9-8.9-15.8-9.8-3.2-.4-6.4-1-10.1-1.6.5 2 .7 3.2 1.1 4.4 4.5 12.9 9 25.8 13.6 38.5.7 2 2.1 3.9 3.5 5.6 2.7 3.2 5.6 6.3 8.4 9.4.9.7 1.7 1.4 2.9 2.6z"
        fill="#b9b9b9" />
    <path
        id="lats_1"
        d="m281.3 73.2c-1.3 0-2.2-.1-3.1 0-4.3.9-8.6 1.5-12.8 2.9-5 1.7-8.3 5.8-11.3 9.9-.6.8-1 2-1 3-.7 13.5-1.3 27-1.9 40.4 0 1.1.2 2.2.3 3.3.5.3.9.7 1.4 1 .4-.9.6-2 1.2-2.7 2.5-3 5.1-5.7 7.5-8.7 1.8-2.3 3.9-4.5 4.9-7.2 3.9-10.2 7.5-20.4 11.1-30.6 1.4-3.5 2.4-7.2 3.7-11.3z"
        fill="#b9b9b9" />
    <path
        id="glutes_0"
        d="m226.7 165.6c3-4.5 7.3-6.7 11.6-8.9.7-.4 1.4-.7 2.1-1.2 3.3-2 4.1-4.1 3.4-7.9-.9-4.6-1.7-9.3-2.3-14-.7-5.1-1.3-5.6-6-3.3-.1 0-.2.1-.2.1-9.1 4.5-13.4 14.7-10.8 26.1.6 2.9 1.3 5.8 2.2 9.1z"
        fill="#b9b9b9" />
    <path
        id="glutes_1"
        d="m273.6 164.7c.7-4.1 1.9-8.6 2.3-13.2.8-10.2-4.3-18.4-13.1-21.8-3-1.1-3.7-.7-4.2 2.5-.7 4.5-1.4 9-2.2 13.5-1.2 6.8-.5 8.1 5.7 11.5 3.8 2.1 7.5 4.8 11.5 7.5z"
        fill="#b9b9b9" />
    <path
        id="rhomboids_0"
        d="m220 50.2c0 .2-.1.5-.1.7 6.7 0 10.1 3.8 12.6 9.4 2.8 6.5 6.3 12.7 11.7 17.5.8.7 1.7 1.3 2.9 2.3.3-1.2.7-1.9.6-2.5-.2-6.3-.3-12.5-.6-18.8-.1-3.1-1.7-5.3-4.7-6.1-5.1-1.3-10.1-2.8-15.3-3.6-2.2-.4-4.7.7-7.1 1.1z"
        fill="#b9b9b9" />
    <path
        id="rhomboids_1"
        d="m280 50.7c-.7-.4-1.1-.6-1.5-.7-7.8-2.2-14.9.5-22.1 3.1-2.7 1-3.7 2.9-3.8 5.5-.2 6.3-.4 12.5-.5 18.8 0 .7.2 1.5.4 2.7 1.1-.7 1.8-1 2.3-1.6 2.5-2.9 5.3-5.6 7.4-8.8 2.5-3.8 4.5-7.9 6.4-12 1.6-3.4 4.1-5.3 7.6-6.1 1.1-.4 2.2-.6 3.8-.9z"
        fill="#b9b9b9" />
    <path
        id="hamstrings_0"
        d="m257.9 219.8c.4 0 .7 0 1.1.1.8-2.1 1.7-4.3 2.5-6.4 1.7-4.8 3.7-9.5 5-14.4 3-11.5 1.1-23.1-.3-34.6-.4-3.2-2.5-4.9-6-5.2-1.3 8.4.5 16.6 1.2 24.8.6 6.8.7 13.7.2 20.6-.3 3.6-2.3 7.1-3.3 10.7-.4 1.3-.3 2.9-.4 4.4z"
        fill="#b9b9b9" />
    <path
        id="hamstrings_1"
        d="m239.6 159.2c-4.1.6-5.9 2.4-6.2 6.1-.5 5.2-1.3 10.3-1.4 15.5-.1 5.3-.3 10.9.9 16 1.9 7.9 4.9 15.6 7.6 23.6 2.7-2.3 1.4-4.5.5-6.4-4.8-10.2-4.2-20.7-2.5-31.3 1.1-7.8 1.8-15.6 1.1-23.5z"
        fill="#b9b9b9" />
    <path 
        id="calves_6"
        d="m242.7 256c5.2-6.1-1.5-42.6-7.7-45.1 0 5.2-.1 10.5 0 15.9.2 6.3.7 12.5 1 18.8.2 4.7 3 7.8 6.7 10.4z"
        fill="#b9b9b9" />
    <path
        id="calves_7"
        d="m265.4 210.5c-.3-.1-.5-.2-.8-.4-.8 1.3-1.7 2.6-2.2 4-1.1 2.9-1.9 6-3 8.9-2.7 7.4-4.4 15.1-4.8 23-.2 3.5-.1 7.1 2.4 10.2 3.3-2.8 6.4-5.3 6.6-9.9.3-8.7.9-17.3 1.4-26 .1-3.3.2-6.5.4-9.8z"
        fill="#b9b9b9" />
    <path
        id="calves_8"
        d="m269.4 207.7c-2.4.8-2.7 2.5-2.8 4.2-.1 4.8-.3 9.7-.1 14.5.2 6.9.4 13.8-1.5 20.5-.9 3.2-.2 5.3 2.7 6.8.2-.1.5-.2.6-.4.3-.2.5-.5.7-.8 3-5.7 5.1-11.7 4.2-18.3-1-7.2-2.1-14.3-3.2-21.5-.2-1.6-.3-3.2-.6-5z"
        fill="#b9b9b9" />
    <path
        id="calves_9"
        d="m231.7 253.8c3.8-2.8 3.5-2.8 3-6.7-.8-6.2-1.2-12.4-1.5-18.6-.3-5.9-.2-11.8-.4-17.7-.1-1.1-1.1-2.2-1.6-3.2-.3.1-.6.3-.9.4-.5 3.9-1 7.7-1.5 11.6-.8 6.3-2 12.5-2.2 18.8-.4 5.6 1.9 10.7 5.1 15.4z"
        fill="#b9b9b9" />
    <path
        d="m238.5 297.4h.9c.1-1 .2-1.9.3-2.9.7-8.2 1.2-16.4 2-24.6.6-5.6 1.8-11.4-3.2-15.8-.9-.8-2.7-1.7-3.6-1.3-1.6.7-3.3 1.8-2.6 4.3.8 2.8 1.5 5.7 1.9 8.6 1.3 9.7 2.5 19.5 3.8 29.2.2.9.4 1.7.5 2.5z"
        fill="#b9b9b9" />
    <path
        d="m260.4 297.3h.9c.1-.8.3-1.6.4-2.3.9-8 1.6-16 2.7-23.9.7-4.8 1.8-9.4 2.9-14.1.5-2.3-1.2-3.4-2.6-4.1-.8-.4-2.5.5-3.4 1.2-4.1 3.6-4.1 8.3-3.6 13.3.9 9.1 1.6 18.3 2.3 27.5 0 .7.2 1.5.4 2.4z"
        fill="#b9b9b9" />
    <path
        id="hamstrings_2"
        d="m272.1 216.4h.4c.1-2.5.3-4.9.4-7.4.2-3.4-.1-6.9.8-10.1 2.6-8.6 2.1-17.1.4-25.7-.8-4.1-2.2-7.7-5.9-9.4.5 5.4 1.4 11.1 1.5 16.8.1 6.2-1.1 12.5-.7 18.7.3 5.8 2 11.5 3.1 17.1z"
        fill="#b9b9b9" />
    <path
        id="hamstrings_3"
        d="m227.4 217c1-4.6 2-8.6 2.7-12.7.4-2.5.5-5.1.4-7.7-.1-5-.7-10-.5-15 .2-5.9 1-11.7 1.6-18.4-1.8 2.1-4 3.5-4.5 5.4-2.4 8.6-4.3 17.4-1.8 26.4 1.4 5.1 2.1 10.3 1.7 15.6-.2 2 .2 3.9.4 6.4z"
        fill="#b9b9b9" />
    <path
        id="traps_2"
        d="m252.9 23.9c-.4 0-.8-.1-1.2-.1-.3 1-1 2.1-.9 3.1.6 7.1 1.4 14.2 2 21.3.3 3.4.8 3.7 4 2.7 4.1-1.3 8.2-2.5 12.1-3.7-2.4-1.8-5.1-3.9-7.9-6-5.5-4.3-9.9-9.2-8.1-17.3z"
        fill="#b9b9b9" />
    <path
        id="traps_3"
        d="m231 47.2c3.7 1.1 7.6 2.3 11.6 3.6 3.5 1.1 4 .8 4.2-2.8 0-.7.2-1.4.3-2.1 1.3-6.4 2.3-12.8 1.8-19.4-.1-1-.8-2-1.2-3-.3.1-.5.2-.8.3.1.9.3 1.9.4 2.8.2 4.7-1.6 8.6-5.2 11.6-3.8 3.2-7.7 6.3-11.1 9z"
        fill="#b9b9b9" />
    <path 
        id="deltoids_4"
        d="m225.5 54.8c-3.9-2.6-8.6-3-11.5-.8-4.8 3.6-6.8 13.4-3.5 18.5 4.9-5.8 9.9-11.7 15-17.7z" 
        fill="#b9b9b9" />
    <path
        id="deltoids_5"
        d="m274.2 54.8c5.1 6 10.1 11.9 15 17.7.3-.1.7-.2 1-.3.1-3 .7-6 .3-8.9-.9-9.6-8.5-13.4-16.3-8.5z"
        fill="#b9b9b9" />
    <path
        id="triceps_2"
        d="m283.1 68.5c-.4 4.3-.8 8.2-1.1 12.1-.2 3.2-.6 6.4-.3 9.6.5 4.7 2.7 8.7 5.5 11.7.4-5.9.5-12 1.2-17.9.7-6.1-1.6-10.9-5.3-15.5z"
        fill="#b9b9b9" />
    <path
        id="triceps_3"
        d="m211.8 102c3.8-3.7 6.3-8.2 6.3-13.4-.1-6.7-.9-13.4-1.4-20.2-4.3 4.8-6.1 10.3-5.2 16.8.7 5.7 1.6 11.1.3 16.8z"
        fill="#b9b9b9" />
    <path d="m234.3 73.1c-2-4.8-3.7-8.9-5.5-12.9-.8-1.7-2.3-2.5-3.9-1.1-3.3 2.9-5.7 6.5-6.5 11 5.2 1.1 10.1 2 15.9 3z"
        fill="#b9b9b9" />
    <path
        d="m265.5 73.1c5.7-1.1 10.7-2 15.8-2.9-.6-4.2-2.9-7.3-5.4-10.1-2.1-2.3-3.8-2.1-5.1.7-1.9 3.7-3.3 7.6-5.3 12.3z"
        fill="#b9b9b9" />
    <path
        id="forearms_9"
        d="m210.1 107.6c-.3-.2-.5-.4-.8-.6-3 8.6-5.9 17.3-8.9 25.9 6.6-7.9 11.5-16.7 14.5-26.3-1.6.4-3.2.7-4.8 1z"
        fill="#b9b9b9" />
    <path
        id="forearms_10"
        d="m284.8 106.6c1.2 6.4 9.5 22 13.9 25.8-1.2-4.2-2.4-8.5-3.8-12.7-1.5-4.3-3.3-8.4-5-12.6-.2.2-.4.4-.6.6-1.5-.4-3-.8-4.5-1.1z"
        fill="#b9b9b9" />
    <path 
        id="adductors_0"
        d="m246.2 155.5c-3.7.3-4.2.9-4.1 4 .1 3.3-.2 6.6 0 9.9.3 5.8.8 11.7 1.2 17.5h.8c2-10.3 2-20.8 2.1-31.4z"
        fill="#b9b9b9" />
    <path
        id="adductors_1"
        d="m256.1 187.1c.2-1.4.4-2.6.6-3.7.4-3.8 1-7.6 1.1-11.4.1-4.2-.4-8.4-.2-12.6.2-3-1.2-3.7-3.6-3.9-1.1 5.6.3 27.2 2.1 31.6z"
        fill="#b9b9b9" />
    <path d="m275.9 140.1c-1-4.5-1.8-9.1-3-13.5-.9-3.1-2.6-4.1-5.5-4s-5.3 1.9-6.1 4.6c10.7 6.2 10.7 6.2 14.6 12.9z"
        fill="#b9b9b9" />
    <path
        d="m224 139.7c.2.1.5.2.7.3 1.8-7.4 7.6-10.5 14-12.8-1.8-3.5-4.4-5-7.5-4.7-3.2.4-4.3 2.7-4.8 5.3-1 4-1.7 8-2.4 11.9z"
        fill="#b9b9b9" />
    <path 
        id="hamstrings_4"
        d="m257 213.5c3.8-7.1 4.3-14.8 1.7-31.4-2.2 6.9-3.2 27.4-1.7 31.4z"
        fill="#b9b9b9" />
    <path 
        id="hamstrings_5"
        d="m242.7 213.8c1.6-6 .4-25.6-1.8-31.2-.4 3.7-.6 7.5-1.1 11.2-1 6.8-.4 13.4 2.9 20z" 
        fill="#b9b9b9" />
    <path d="m304.1 138.3c.5-6.1-4.9-27.2-7.7-30.9.5 10.5 2.2 21 7.7 30.9z" fill="#b9b9b9" />
    <path d="m202.9 108c-3.8 9.9-6.9 19.9-7.8 31.1 5.6-10 7.7-20.3 7.8-31.1z" fill="#b9b9b9" />
    <path
        d="m307 139.4c1.8-.7 4.2-.5 3.4-3.3-2.2-7.4-4.4-14.7-6.8-22-1.2-3.7-2.9-7.2-4.4-10.7-.2.1-.5.2-.7.3 4.5 11.4 7.3 23.1 8.5 35.7z"
        fill="#b9b9b9" />
    <path
        d="m200.6 105c-.3-.1-.5-.2-.8-.3-1.2 3-2.6 6-3.6 9.1-2.3 7.1-4.3 14.3-6.5 21.5-.9 2.8-.1 4 3.1 3.6 1-11.6 3.8-22.9 7.8-33.9z"
        fill="#b9b9b9" />
    <path 
        id="lower_back_0"
        d="m247.1 150.8c.4-.1.7-.2 1.1-.2.1-1.7 0-3.5.4-5.2 1-5.1-.1-9.1-6.2-11.3 1.7 5.8 3.2 11.2 4.7 16.7z"
        fill="#b9b9b9" />
    <path 
        id="lower_back_1"
        d="m251.6 150.6c3.2-5 4.9-10.3 4.9-16.1-4.3 1.7-6.1 4.4-5.5 8.7.4 2.4.4 4.9.6 7.4z" fill="#b9b9b9" />
    <path
        d="m263.7 296.9c.3.1.7.2 1 .3.2-.8.6-1.6.7-2.4.1-1.4-.2-2.9 0-4.3.6-3.9 1.5-7.7 1.9-11.6.3-3.6.1-7.3.1-10.9-.4 0-.9 0-1.3 0-.8 9.6-1.6 19.2-2.4 28.9z"
        fill="#b9b9b9" />
    <path
        d="m235.3 297.3c0-5.3.3-10.3-.1-15.1-.4-4.7-1.4-9.4-2.1-14.1-.3 0-.5.1-.8.1 0 3.3-.2 6.6.1 9.9.3 3.4.6 6.8 1.7 10 .9 3-1.2 6.4 1.2 9.2z"
        fill="#b9b9b9" />
    <path d="m232.6 120.2c-1.5-4.7-3-9.2-4.5-13.7-.1.1-.2.1-.3.2-.2 5-.5 10-.7 15.2 1.8-.6 3.4-1 5.5-1.7z"
        fill="#b9b9b9" />
    <path d="m272.8 121.8c-.4-5.1-.7-9.7-1-14.3-.2 0-.4 0-.6-.1-1.3 4.3-2.6 8.5-4 12.9 2.3.6 3.8 1 5.6 1.5z"
        fill="#b9b9b9" />
    <path d="m222.5 176.7c2.9-5.9 3.7-11.7 0-18.2z" fill="#b9b9b9" />
    <path d="m276.2 177.5h.9c0-6.1 0-12.1 0-18.2-1.2 2-2.3 4-2.3 6 .1 4.1.9 8.2 1.4 12.2z" fill="#b9b9b9" />
    <path 
        id="biceps_2"
        d="m205.3 97c1.5-7.2 3.1-14.3 4.8-22.3-4.5 7.4-5 14.9-4.8 22.3z" 
        fill="#b9b9b9" />
    <path 
        id="biceps_3"
        d="m289.6 74.9c1.7 7.8 3.3 15.4 4.9 23.1.3-8.1-.3-15.9-4.9-23.1z" 
        fill="#b9b9b9" />
    <path
        id="triceps_4"
        d="m290.5 84.5c-.3 0-.6 0-.8 0 0 4.2-.1 8.3.1 12.5 0 .6.8 1.3 1.2 1.9.5-.7 1.4-1.4 1.3-2-.5-4.2-1.2-8.3-1.8-12.4z"
        fill="#b9b9b9" />
    <path
        id="triceps_5"
        d="m210.2 84.5c-.3 0-.7 0-1 0-.6 4.1-1.2 8.2-1.6 12.3-.1.7.9 1.4 1.4 2.2.4-.7 1.1-1.4 1.1-2.1.2-2 .1-4.1.1-6.2s0-4.2 0-6.2z"
        fill="#b9b9b9" />
</svg>